<svg xmlns="http://www.w3.org/2000/svg" width="251" height="431" fill="none"><rect width="200.812" height="381.417" x=".077" fill="#F2F2F2" rx="8"/><path fill="#fff" fill-rule="evenodd" d="M99.851 357.42c10.463 0 18.945-8.481 18.945-18.944s-8.482-18.945-18.945-18.945c-10.463 0-18.945 8.482-18.945 18.945 0 10.463 8.482 18.944 18.945 18.944ZM83.432 25.26a2.526 2.526 0 1 0 0-5.052 2.526 2.526 0 0 0 0 5.051Z" clip-rule="evenodd"/><rect width="26.522" height="5.052" x="92.273" y="20.207" fill="#fff" rx="2"/><rect width="165.449" height="53.045" x="17.758" y="176.816" fill="#fff" rx="4"/><rect width="92.197" height="7.957" x="67.014" y="192.729" fill="#DDE3E9" rx="3"/><rect width="61.886" height="7.957" x="67.014" y="205.99" fill="#DDE3E9" rx="3"/><rect width="165.449" height="68.2" x="17.758" y="35.363" fill="#fff" rx="4"/><rect width="92.197" height="10.23" x="67.014" y="55.823" fill="#DDE3E9" rx="3"/><rect width="61.886" height="10.23" x="67.014" y="72.873" fill="#DDE3E9" rx="3"/><path fill="#C5CFD6" fill-rule="evenodd" d="M44.28 84.619c8.37 0 15.156-6.785 15.156-15.156 0-8.37-6.785-15.155-15.156-15.155-8.37 0-15.155 6.785-15.155 15.155S35.91 84.62 44.28 84.62Z" clip-rule="evenodd"/><rect width="165.449" height="53.045" x="17.758" y="113.667" fill="#fff" rx="4"/><rect width="92.197" height="7.957" x="67.014" y="129.581" fill="#DDE3E9" rx="3"/><rect width="61.886" height="7.957" x="67.014" y="142.842" fill="#DDE3E9" rx="3"/><path fill="#C5CFD6" fill-rule="evenodd" d="M44.28 155.345c8.37 0 15.156-6.785 15.156-15.155 0-8.371-6.785-15.156-15.156-15.156-8.37 0-15.155 6.785-15.155 15.156 0 8.37 6.785 15.155 15.155 15.155Z" clip-rule="evenodd"/><path fill="#AFB9C5" fill-rule="evenodd" d="M44.28 218.494c8.37 0 15.156-6.786 15.156-15.156 0-8.37-6.785-15.156-15.156-15.156-8.37 0-15.155 6.786-15.155 15.156 0 8.37 6.785 15.156 15.155 15.156Z" clip-rule="evenodd"/><rect width="165.449" height="53.045" x="17.758" y="239.964" fill="#fff" rx="4"/><rect width="92.197" height="7.957" x="67.014" y="255.878" fill="#DDE3E9" rx="3"/><rect width="61.886" height="7.957" x="67.014" y="269.139" fill="#DDE3E9" rx="3"/><path fill="#C5CFD6" fill-rule="evenodd" d="M44.28 281.642c8.37 0 15.156-6.785 15.156-15.156 0-8.37-6.785-15.155-15.156-15.155-8.37 0-15.155 6.785-15.155 15.155 0 8.371 6.785 15.156 15.155 15.156Z" clip-rule="evenodd"/><rect width="200.812" height="381.417" x="49.66" y="49.584" fill="#DDE3E8" rx="8"/><path fill="#fff" fill-rule="evenodd" d="M149.434 407.004c10.463 0 18.945-8.482 18.945-18.945 0-10.462-8.482-18.944-18.945-18.944-10.463 0-18.944 8.482-18.944 18.944 0 10.463 8.481 18.945 18.944 18.945ZM133.015 74.843a2.526 2.526 0 1 0 0-5.052 2.526 2.526 0 0 0 0 5.052Z" clip-rule="evenodd"/><rect width="26.522" height="5.052" x="141.856" y="69.791" fill="#fff" rx="2"/><rect width="165.449" height="53.045" x="67.342" y="226.399" fill="#fff" rx="4"/><rect width="92.197" height="7.957" x="116.597" y="242.312" fill="#DDE3E9" rx="3"/><rect width="61.886" height="7.957" x="116.597" y="255.574" fill="#DDE3E9" rx="3"/><rect width="165.449" height="68.2" x="67.342" y="84.947" fill="#fff" rx="4"/><rect width="92.197" height="10.23" x="116.597" y="105.406" fill="#DDE3E9" rx="3"/><rect width="61.886" height="10.23" x="116.597" y="122.457" fill="#DDE3E9" rx="3"/><path fill="#C5CFD6" fill-rule="evenodd" d="M93.863 134.202c8.371 0 15.156-6.786 15.156-15.156 0-8.37-6.785-15.155-15.156-15.155-8.37 0-15.155 6.785-15.155 15.155s6.785 15.156 15.155 15.156Z" clip-rule="evenodd"/><rect width="165.449" height="53.045" x="67.342" y="163.25" fill="#fff" rx="4"/><rect width="92.197" height="7.957" x="116.597" y="179.164" fill="#DDE3E9" rx="3"/><rect width="61.886" height="7.957" x="116.597" y="192.425" fill="#DDE3E9" rx="3"/><path fill="#C5CFD6" fill-rule="evenodd" d="M93.863 204.928c8.371 0 15.156-6.785 15.156-15.155 0-8.371-6.785-15.156-15.156-15.156-8.37 0-15.155 6.785-15.155 15.156 0 8.37 6.785 15.155 15.155 15.155Z" clip-rule="evenodd"/><path fill="#AFB9C5" fill-rule="evenodd" d="M93.863 268.077c8.371 0 15.156-6.786 15.156-15.156 0-8.37-6.785-15.155-15.156-15.155-8.37 0-15.155 6.785-15.155 15.155s6.785 15.156 15.155 15.156Z" clip-rule="evenodd"/><rect width="165.449" height="53.045" x="67.342" y="289.547" fill="#fff" rx="4"/><rect width="92.197" height="7.957" x="116.597" y="305.461" fill="#DDE3E9" rx="3"/><rect width="61.886" height="7.957" x="116.597" y="318.722" fill="#DDE3E9" rx="3"/><path fill="#C5CFD6" fill-rule="evenodd" d="M93.863 331.226c8.371 0 15.156-6.786 15.156-15.156 0-8.37-6.785-15.156-15.156-15.156-8.37 0-15.155 6.786-15.155 15.156 0 8.37 6.785 15.156 15.155 15.156Z" clip-rule="evenodd"/></svg>